<?xml version="1.0" encoding="UTF-8"?>
<svg xmlns="http://www.w3.org/2000/svg" version="1.1" viewBox="0 0 287.2 121.1">
  <defs>
    <style>
      .st0 {
        fill: #eb5d0b;
      }

      .st1 {
        fill: #eb5d0b;
      }

      .st2 {
        fill: none;
        stroke: #b2b2b2;
        stroke-miterlimit: 10;
        stroke-width: 1.5px;
      }

      .st3 {
        fill: #b2b2b2;
      }
    </style>
  </defs>
  <g id="Laag_1">
    <g>
      <path class="st3" d="M16.9,13.9v26c0,3.8,1.4,7.1,4.1,9.8,2.7,2.7,6,4.1,9.8,4.1s7.1-1.3,9.8-4.1c2.7-2.7,4.1-6,4.1-9.8s-1.4-7.1-4.1-9.8c-1.3-1.2-2.7-2.2-4.4-3-1.7-.7-3.5-1.1-5.4-1.1s-3.6.3-5.3,1c-1.7.7-3.2,1.7-4.5,3l-3-3c1.7-1.7,3.7-3,5.9-3.9,2.2-.9,4.5-1.4,6.9-1.4s4.9.5,7.1,1.4c2.2.9,4.1,2.2,5.8,3.9,1.6,1.6,3,3.6,3.9,5.8,1,2.2,1.4,4.6,1.4,7.1s-.5,4.9-1.4,7.1c-1,2.2-2.3,4.1-3.9,5.8-1.6,1.6-3.6,2.9-5.8,3.9-2.2.9-4.6,1.4-7.1,1.4s-4.9-.5-7.1-1.4c-2.2-.9-4.1-2.2-5.8-3.9-1.6-1.6-2.9-3.5-3.9-5.8-.9-2.2-1.4-4.6-1.4-7.1V13.9h4.3Z"></path>
      <path class="st3" d="M80.7,52.8c-1.7,1.7-3.7,3-5.9,3.9-2.2.9-4.5,1.4-6.9,1.4s-4.9-.5-7.1-1.4c-2.2-.9-4.1-2.2-5.8-3.9-1.6-1.6-2.9-3.5-3.9-5.8-.9-2.2-1.4-4.6-1.4-7.1s.5-4.8,1.4-7.1c.9-2.2,2.2-4.1,3.9-5.8,1.6-1.6,3.6-2.9,5.8-3.9,2.2-.9,4.6-1.4,7.1-1.4s4.9.5,7.1,1.4c2.2.9,4.1,2.2,5.8,3.9,1.6,1.6,2.9,3.6,3.9,5.8,1,2.2,1.4,4.6,1.4,7.1v2.1h-31.9c.5,3,1.8,5.5,3.9,7.7,2.7,2.7,6,4.1,9.8,4.1s3.6-.3,5.3-1c1.6-.7,3.2-1.7,4.5-3l3,3ZM58.1,30.1c-2.1,2.1-3.4,4.7-3.9,7.7h27.4c-.4-3-1.7-5.5-3.9-7.7-1.3-1.2-2.7-2.2-4.4-3-1.7-.7-3.5-1.1-5.4-1.1s-3.7.4-5.4,1.1c-1.7.7-3.2,1.7-4.4,3"></path>
      <path class="st0" d="M118.8,39.9c0-3.8-1.4-7.1-4.1-9.8-1.3-1.2-2.7-2.2-4.4-3-1.7-.7-3.5-1.1-5.4-1.1s-3.7.4-5.4,1.1c-1.7.7-3.2,1.7-4.4,3-2.7,2.7-4.1,6-4.1,9.8v18.2h-4.3v-18.2c0-2.5.5-4.8,1.4-7.1.9-2.2,2.2-4.1,3.9-5.8,1.6-1.6,3.6-2.9,5.8-3.9,2.2-.9,4.6-1.4,7.1-1.4s4.9.5,7.1,1.4c2.2.9,4.1,2.2,5.8,3.9,1.6,1.6,2.9,3.6,3.9,5.8,1,2.2,1.4,4.6,1.4,7.1h-4.3Z"></path>
      <path class="st0" d="M142.1,21.8c2.5,0,4.9.5,7.1,1.4,2.2.9,4.1,2.2,5.8,3.9,1.6,1.6,2.9,3.6,3.9,5.8,1,2.2,1.4,4.6,1.4,7.1s-.5,4.9-1.4,7.1c-1,2.2-2.3,4.1-3.9,5.8-1.6,1.6-3.6,2.9-5.8,3.9-2.2.9-4.6,1.4-7.1,1.4s-4.9-.5-7.1-1.4c-2.2-.9-4.1-2.2-5.8-3.9-1.6-1.6-2.9-3.5-3.9-5.8-.9-2.2-1.4-4.6-1.4-7.1s.5-4.8,1.4-7.1c.9-2.2,2.2-4.1,3.9-5.8,1.6-1.6,3.6-2.9,5.8-3.9,2.2-.9,4.6-1.4,7.1-1.4M151.9,30.1c-1.3-1.2-2.7-2.2-4.4-3-1.7-.7-3.5-1.1-5.4-1.1s-3.7.4-5.4,1.1c-1.7.7-3.2,1.7-4.4,3-2.7,2.7-4.1,6-4.1,9.8s1.4,7.1,4.1,9.8c2.7,2.7,6,4.1,9.8,4.1s7.1-1.4,9.8-4.1c2.7-2.7,4.1-6,4.1-9.8s-1.4-7.1-4.1-9.8"></path>
      <path class="st1" d="M230.1,39.9c0-3.8-1.4-7.1-4.1-9.8-1.3-1.2-2.7-2.2-4.4-3-1.7-.7-3.5-1.1-5.4-1.1s-3.7.4-5.4,1.1c-1.7.7-3.2,1.7-4.4,3-2.7,2.7-4.1,6-4.1,9.8v18.2h-4.3v-18.2c0-2.5.5-4.8,1.4-7.1.9-2.2,2.2-4.1,3.9-5.8,1.6-1.6,3.6-2.9,5.8-3.9,2.2-.9,4.6-1.4,7.1-1.4s4.9.5,7.1,1.4c2.2.9,4.1,2.2,5.8,3.9,1.6,1.6,2.9,3.6,3.9,5.8,1,2.2,1.4,4.6,1.4,7.1v18.2h-4.3v-18.2Z"></path>
      <path class="st0" d="M263.2,30.1c-1.4-1.3-2.9-2.3-4.5-3-1.7-.7-3.5-1-5.3-1s-3.7.4-5.4,1.1c-1.7.7-3.2,1.7-4.4,3-2.7,2.7-4.1,6-4.1,9.8s1.4,7.1,4.1,9.8c2.7,2.7,6,4.1,9.8,4.1s7.1-1.4,9.8-4.1c2.7-2.7,4.1-6,4.1-9.8V13.9h4.3v26c0,2.5-.5,4.9-1.4,7.1-1,2.2-2.3,4.1-3.9,5.8-1.6,1.6-3.6,2.9-5.8,3.9-2.2.9-4.6,1.4-7.1,1.4s-4.9-.5-7.1-1.4c-2.2-.9-4.1-2.2-5.8-3.9-1.6-1.6-2.9-3.5-3.9-5.8-.9-2.2-1.4-4.6-1.4-7.1s.5-4.8,1.4-7.1c.9-2.2,2.2-4.1,3.9-5.8,1.6-1.6,3.6-2.9,5.8-3.9,2.2-.9,4.6-1.4,7.1-1.4s4.7.5,6.9,1.4c2.2.9,4.2,2.2,5.9,3.9l-3,3Z"></path>
      <path class="st0" d="M165.4,42.4c0,3.8,1.4,7.1,4.1,9.8,1.3,1.2,2.7,2.2,4.4,3,1.7.7,3.5,1.1,5.4,1.1s3.7-.4,5.4-1.1c1.7-.7,3.2-1.7,4.4-3,2.7-2.7,4.1-6,4.1-9.8v-18.2h4.3v18.2c0,2.5-.5,4.8-1.4,7-.9,2.2-2.2,4.1-3.9,5.8-1.6,1.6-3.6,2.9-5.8,3.9-2.2.9-4.6,1.4-7.1,1.4s-4.9-.5-7.1-1.4c-2.2-.9-4.1-2.2-5.8-3.9-1.6-1.6-2.9-3.6-3.9-5.8-1-2.2-1.4-4.6-1.4-7v-18.2h4.3v18.2Z"></path>
    </g>
    <line class="st2" x1="11.1" y1="83.6" x2="50.2" y2="83.6"></line>
    <line class="st2" x1="232.6" y1="83.6" x2="271.7" y2="83.6"></line>
  </g>
  <g id="nieuwe_tagline">
    <g>
      <path class="st0" d="M61.8,88v-1.3c-.2.5-.6.9-1,1.2s-.9.4-1.5.4c-1,0-1.8-.3-2.4-1-.6-.7-.9-1.6-.9-2.7s.3-2,.9-2.7c.6-.7,1.4-1.1,2.3-1.1s1.1.1,1.5.4.8.6,1,1.1v-1.3h1v6.9h-1ZM57.1,84.7c0,.9.2,1.6.6,2.1.4.5,1,.7,1.7.7s1.3-.3,1.7-.8c.4-.5.6-1.3.6-2.2s-.2-1.5-.6-2c-.4-.5-1-.7-1.7-.7s-1.3.3-1.7.8-.6,1.2-.6,2.1Z"></path>
      <path class="st0" d="M68.7,86.8l.9-.5c.2.4.4.7.7.9.3.2.6.3,1.1.3s.7-.1,1-.3c.2-.2.4-.5.4-.8,0-.5-.5-1-1.4-1.4,0,0-.2,0-.2,0-.7-.3-1.2-.6-1.5-.9-.3-.3-.4-.7-.4-1.1s.2-1.1.6-1.4c.4-.4,1-.6,1.6-.6s1,.1,1.4.4c.4.2.7.6.9,1l-.9.5c-.1-.3-.3-.6-.5-.8-.3-.2-.6-.3-.9-.3s-.6,0-.8.3c-.2.2-.3.4-.3.7s.1.5.3.7c.2.2.7.4,1.3.6.8.3,1.3.6,1.5.9.3.3.4.7.4,1.3s-.2,1.1-.7,1.5-1.1.6-1.8.6-1.1-.1-1.5-.4c-.4-.3-.7-.6-.9-1.1Z"></path>
      <path class="st0" d="M76.4,88h-1v-6.9h1v1.1c.2-.4.5-.8.9-1s.8-.3,1.3-.3.9.1,1.3.3c.4.2.6.6.8,1,.3-.5.6-.8,1-1,.4-.2.9-.3,1.4-.3s1.3.2,1.7.7.6,1.1.6,1.8v4.7h-1v-4.3c0-.7-.1-1.2-.4-1.5-.3-.3-.7-.5-1.2-.5s-1.1.2-1.5.6c-.3.4-.5,1.1-.5,2.1v3.6h-1v-4.3c0-.7-.1-1.2-.4-1.6s-.7-.5-1.2-.5-1.2.2-1.5.7c-.3.4-.5,1.1-.5,2v3.6Z"></path>
      <path class="st0" d="M87.6,78.4c0-.2,0-.4.2-.5.1-.1.3-.2.5-.2s.4,0,.5.2.2.3.2.5,0,.4-.2.5c-.1.1-.3.2-.5.2s-.4,0-.5-.2c-.1-.1-.2-.3-.2-.5ZM87.9,88v-6.9h1v6.9h-1Z"></path>
      <path class="st0" d="M92.3,88h-1v-12.1h1v12.1Z"></path>
      <path class="st0" d="M100.7,84.6h-5.5c0,.9.2,1.6.7,2.1s1,.8,1.7.8,1-.1,1.3-.4c.4-.3.7-.7,1-1.2l.9.5c-.4.7-.8,1.2-1.3,1.6-.5.3-1.1.5-1.9.5s-1.8-.3-2.5-1c-.6-.7-.9-1.6-.9-2.7s.3-2.1.9-2.8c.6-.7,1.4-1,2.4-1s1.7.3,2.3,1,.9,1.5.9,2.6v.2ZM99.6,83.8c0-.6-.3-1.1-.6-1.5s-.9-.5-1.5-.5-1.1.2-1.5.5c-.4.4-.6.8-.7,1.5h4.3Z"></path>
      <path class="st0" d="M102.6,84.1h3.4v1h-3.4v-1Z"></path>
      <path class="st0" d="M114.4,84.6h-5.5c0,.9.2,1.6.7,2.1s1,.8,1.7.8,1-.1,1.3-.4c.4-.3.7-.7,1-1.2l.9.5c-.4.7-.8,1.2-1.3,1.6-.5.3-1.1.5-1.9.5s-1.8-.3-2.5-1c-.6-.7-.9-1.6-.9-2.7s.3-2.1.9-2.8c.6-.7,1.4-1,2.4-1s1.7.3,2.3,1,.9,1.5.9,2.6v.2ZM113.2,83.8c0-.6-.3-1.1-.6-1.5s-.9-.5-1.5-.5-1.1.2-1.5.5c-.4.4-.6.8-.7,1.5h4.3Z"></path>
      <path class="st0" d="M116.2,88v-6.9h.9v1.1c.3-.4.6-.8,1-1,.4-.2.9-.3,1.4-.3.8,0,1.4.2,1.8.7s.7,1,.7,1.8v4.7h-1v-4.3c0-.7-.1-1.2-.4-1.5s-.7-.5-1.3-.5-1.3.2-1.6.7c-.3.4-.5,1.1-.5,2.1v3.6h-1Z"></path>
      <path class="st0" d="M129.4,88v-1.3c-.2.5-.6.9-1,1.2s-.9.4-1.5.4c-1,0-1.8-.3-2.4-1-.6-.7-.9-1.6-.9-2.7s.3-2,.9-2.7c.6-.7,1.4-1.1,2.3-1.1s1.1.1,1.5.4.8.6,1,1.1v-1.3h1v6.9h-1ZM124.8,84.7c0,.9.2,1.6.6,2.1.4.5,1,.7,1.7.7s1.3-.3,1.7-.8c.4-.5.6-1.3.6-2.2s-.2-1.5-.6-2c-.4-.5-1-.7-1.7-.7s-1.3.3-1.7.8-.6,1.2-.6,2.1Z"></path>
      <path class="st0" d="M133.7,88h-1v-12.1h1v6.4c.2-.5.6-.9,1-1.1s.9-.4,1.5-.4c.9,0,1.7.4,2.3,1.1s.9,1.6.9,2.7-.3,2-.9,2.7-1.4,1-2.4,1-1-.1-1.5-.4-.7-.7-1-1.2v1.3ZM138.4,84.7c0-.9-.2-1.6-.6-2.1s-1-.8-1.7-.8-1.3.2-1.7.7-.6,1.2-.6,2,.2,1.7.6,2.2,1,.8,1.7.8,1.3-.2,1.7-.7.6-1.2.6-2.1Z"></path>
      <path class="st0" d="M142.3,88h-1v-12.1h1v12.1Z"></path>
      <path class="st0" d="M144.5,78.4c0-.2,0-.4.2-.5s.3-.2.5-.2.4,0,.5.2.2.3.2.5,0,.4-.2.5-.3.2-.5.2-.4,0-.5-.2-.2-.3-.2-.5ZM144.7,88v-6.9h1v6.9h-1Z"></path>
      <path class="st0" d="M148.1,88v-6.9h.9v1.1c.3-.4.6-.8,1-1s.9-.3,1.4-.3c.8,0,1.4.2,1.8.7s.7,1,.7,1.8v4.7h-1v-4.3c0-.7-.1-1.2-.4-1.5s-.7-.5-1.3-.5-1.3.2-1.6.7-.5,1.1-.5,2.1v3.6h-1Z"></path>
      <path class="st0" d="M162.4,81.1v5.7c0,.9,0,1.6,0,2.1s-.1.8-.2,1.1c-.2.5-.6.9-1.1,1.2s-1.1.4-1.9.4-1.6-.2-2.2-.5-.8-.9-.9-1.6h1.2c0,.4.3.8.6,1s.8.3,1.3.3.8,0,1.2-.2.6-.4.8-.6c.1-.2.2-.4.2-.6s0-.6,0-1.1v-1.4c-.2.5-.5.9-1,1.2s-.9.4-1.5.4c-1,0-1.8-.3-2.3-1s-.9-1.6-.9-2.7.3-2,.9-2.7,1.4-1,2.4-1,1,.1,1.5.4.8.7,1,1.1v-1.3h1ZM159.1,81.7c-.7,0-1.3.3-1.7.8s-.6,1.2-.6,2.1.2,1.6.6,2.1.9.7,1.6.7,1.3-.3,1.8-.8.7-1.2.7-2.1-.2-1.6-.6-2.1-1-.7-1.7-.7Z"></path>
      <path class="st0" d="M174.5,82.4c-.3-.2-.7-.4-1-.5s-.7-.2-1.1-.2c-.9,0-1.5.3-2.1.8s-.8,1.3-.8,2.2.3,1.5.8,2,1.2.8,2,.8.8,0,1.1-.2.8-.3,1.1-.6v1.1c-.3.2-.7.3-1.1.4s-.9.1-1.3.1c-1.1,0-1.9-.3-2.6-1s-1-1.6-1-2.7.4-2,1.1-2.8,1.6-1.1,2.8-1.1.8,0,1.2.1.7.2,1,.3v1.1Z"></path>
      <path class="st0" d="M179.4,88.3c-.5,0-1,0-1.4-.3s-.9-.5-1.2-.8c-.3-.3-.6-.7-.8-1.2s-.3-.9-.3-1.4,0-1,.3-1.4.5-.9.8-1.2.8-.6,1.2-.8.9-.3,1.4-.3,1,0,1.5.3.9.5,1.2.8.6.8.8,1.2.3.9.3,1.4,0,1-.3,1.4-.5.9-.8,1.2c-.4.4-.8.6-1.2.8s-1,.3-1.5.3ZM179.4,87.4c.8,0,1.4-.3,1.9-.8s.8-1.2.8-2-.3-1.5-.8-2-1.2-.8-1.9-.8-1.4.3-1.9.8-.8,1.2-.8,2,.3,1.5.8,2,1.2.8,1.9.8Z"></path>
      <path class="st0" d="M185.9,88h-1v-6.9h1v1.1c.2-.4.5-.8.9-1s.8-.3,1.3-.3.9.1,1.3.3.6.6.8,1c.3-.5.6-.8,1-1s.9-.3,1.4-.3,1.3.2,1.7.7.6,1.1.6,1.8v4.7h-1v-4.3c0-.7-.1-1.2-.4-1.5s-.7-.5-1.2-.5-1.1.2-1.5.6-.5,1.1-.5,2.1v3.6h-1v-4.3c0-.7-.1-1.2-.4-1.6s-.7-.5-1.2-.5-1.2.2-1.5.7-.5,1.1-.5,2v3.6Z"></path>
      <path class="st0" d="M197.4,91.5v-10.4h.9v1.3c.3-.5.6-.9,1-1.2s.9-.4,1.4-.4c1,0,1.8.3,2.4,1,.6.7.9,1.6.9,2.7s-.3,2-.9,2.7c-.6.7-1.4,1-2.3,1s-1-.1-1.5-.4-.8-.7-1-1.2v4.8h-.9ZM203,84.6c0-.9-.2-1.6-.6-2.1-.4-.5-1-.8-1.7-.8s-1.3.2-1.7.7-.6,1.2-.6,2.1.2,1.6.7,2.1,1,.8,1.8.8,1.2-.2,1.6-.7c.4-.5.6-1.2.6-2.1Z"></path>
      <path class="st0" d="M210.9,88v-1.3c-.2.5-.6.9-1,1.2s-.9.4-1.5.4c-1,0-1.8-.3-2.4-1s-.9-1.6-.9-2.7.3-2,.9-2.7,1.4-1.1,2.3-1.1,1.1.1,1.5.4.8.6,1,1.1v-1.3h1v6.9h-1ZM206.2,84.7c0,.9.2,1.6.6,2.1s1,.7,1.7.7,1.3-.3,1.7-.8c.4-.5.6-1.3.6-2.2s-.2-1.5-.6-2-1-.7-1.7-.7-1.3.3-1.7.8-.6,1.2-.6,2.1Z"></path>
      <path class="st0" d="M214.3,88v-6.9h.9v1.1c.3-.4.6-.8,1-1s.9-.3,1.4-.3c.8,0,1.4.2,1.8.7s.7,1,.7,1.8v4.7h-1v-4.3c0-.7-.1-1.2-.4-1.5s-.7-.5-1.3-.5-1.3.2-1.6.7-.5,1.1-.5,2.1v3.6h-1Z"></path>
      <path class="st0" d="M221.4,81.1h1l2,5.4,1.8-5.4h1l-3.6,10.4h-1l1.2-3.5-2.5-6.9Z"></path>
      <path class="st0" d="M46.2,100.4c-.3-.2-.7-.4-1-.5-.4-.1-.7-.2-1.1-.2-.9,0-1.5.3-2.1.8-.5.5-.8,1.3-.8,2.2s.3,1.5.8,2c.5.5,1.2.8,2,.8s.8,0,1.1-.2.8-.3,1.1-.6v1.1c-.3.2-.7.3-1.1.4-.4,0-.9.1-1.3.1-1.1,0-1.9-.3-2.6-1-.7-.7-1-1.6-1-2.7s.4-2,1.1-2.8c.7-.7,1.6-1.1,2.8-1.1s.8,0,1.2.1.7.2,1,.3v1.1Z"></path>
      <path class="st0" d="M48.8,100.5c.4-.6.7-1,1-1.3.3-.2.7-.4,1.2-.4s.3,0,.4,0c.1,0,.3,0,.4.1l-.3.9c-.1,0-.2,0-.3,0-.1,0-.2,0-.3,0-.6,0-1.1.3-1.5.8-.4.5-.6,1.2-.6,2v3.4h-1v-6.9h1v1.4Z"></path>
      <path class="st0" d="M58.6,102.6h-5.5c0,.9.2,1.6.7,2.1s1,.8,1.7.8,1-.1,1.3-.4c.4-.3.7-.7,1-1.2l.9.5c-.4.7-.8,1.2-1.3,1.6-.5.3-1.1.5-1.9.5s-1.8-.3-2.5-1c-.6-.7-.9-1.6-.9-2.7s.3-2.1.9-2.8c.6-.7,1.4-1,2.4-1s1.7.3,2.3,1,.9,1.5.9,2.6v.2ZM57.5,101.8c0-.6-.3-1.1-.6-1.5s-.9-.5-1.5-.5-1.1.2-1.5.5c-.4.4-.6.8-.7,1.5h4.3Z"></path>
      <path class="st0" d="M65.6,106v-1.3c-.2.5-.6.9-1,1.2s-.9.4-1.5.4c-1,0-1.8-.3-2.4-1-.6-.7-.9-1.6-.9-2.7s.3-2,.9-2.7c.6-.7,1.4-1.1,2.3-1.1s1.1.1,1.5.4.8.6,1,1.1v-1.3h1v6.9h-1ZM60.9,102.7c0,.9.2,1.6.6,2.1.4.5,1,.7,1.7.7s1.3-.3,1.7-.8c.4-.5.6-1.3.6-2.2s-.2-1.5-.6-2c-.4-.5-1-.7-1.7-.7s-1.3.3-1.7.8-.6,1.2-.6,2.1Z"></path>
      <path class="st0" d="M69.1,99.9h-1.3v-.8h1.3v-2.8h.9v2.8h1.4v.8h-1.4v6.1h-.9v-6.1Z"></path>
      <path class="st0" d="M72.5,96.4c0-.2,0-.4.2-.5.1-.1.3-.2.5-.2s.4,0,.5.2.2.3.2.5,0,.4-.2.5c-.1.1-.3.2-.5.2s-.4,0-.5-.2c-.1-.1-.2-.3-.2-.5ZM72.7,106v-6.9h1v6.9h-1Z"></path>
      <path class="st0" d="M76.1,106v-6.9h.9v1.1c.3-.4.6-.8,1-1,.4-.2.9-.3,1.4-.3.8,0,1.4.2,1.8.7s.7,1,.7,1.8v4.7h-1v-4.3c0-.7-.1-1.2-.4-1.5s-.7-.5-1.3-.5-1.3.2-1.6.7c-.3.4-.5,1.1-.5,2.1v3.6h-1Z"></path>
      <path class="st0" d="M90.3,99.1v5.7c0,.9,0,1.6,0,2.1,0,.5-.1.8-.2,1.1-.2.5-.6.9-1.1,1.2-.5.3-1.1.4-1.9.4s-1.6-.2-2.2-.5c-.5-.4-.8-.9-.9-1.6h1.2c0,.4.3.8.6,1,.3.2.8.3,1.3.3s.8,0,1.2-.2c.3-.2.6-.4.8-.6.1-.2.2-.4.2-.6,0-.2,0-.6,0-1.1v-1.4c-.2.5-.5.9-1,1.2-.4.3-.9.4-1.5.4-1,0-1.8-.3-2.3-1-.6-.7-.9-1.6-.9-2.7s.3-2,.9-2.7,1.4-1,2.4-1,1,.1,1.5.4.8.7,1,1.1v-1.3h1ZM87,99.7c-.7,0-1.3.3-1.7.8s-.6,1.2-.6,2.1.2,1.6.6,2.1c.4.5.9.7,1.6.7s1.3-.3,1.8-.8.7-1.2.7-2.1-.2-1.6-.6-2.1c-.4-.5-1-.7-1.7-.7Z"></path>
      <path class="st0" d="M102.2,106v-1.3c-.2.5-.6.9-1,1.2s-.9.4-1.5.4c-1,0-1.8-.3-2.4-1-.6-.7-.9-1.6-.9-2.7s.3-2,.9-2.7c.6-.7,1.4-1.1,2.3-1.1s1.1.1,1.5.4.8.6,1,1.1v-1.3h1v6.9h-1ZM97.5,102.7c0,.9.2,1.6.6,2.1.4.5,1,.7,1.7.7s1.3-.3,1.7-.8c.4-.5.6-1.3.6-2.2s-.2-1.5-.6-2c-.4-.5-1-.7-1.7-.7s-1.3.3-1.7.8-.6,1.2-.6,2.1Z"></path>
      <path class="st0" d="M109.9,106v-12.1h.9v6.2c.3-.4.6-.8,1-1,.4-.2.9-.3,1.4-.3.8,0,1.4.2,1.8.7s.7,1,.7,1.8v4.7h-1v-4.3c0-.7-.1-1.2-.4-1.5s-.7-.5-1.3-.5-1.3.2-1.6.7c-.3.4-.5,1.1-.5,2.1v3.6h-1Z"></path>
      <path class="st0" d="M123.2,106v-1.3c-.2.5-.6.9-1,1.2s-.9.4-1.5.4c-1,0-1.8-.3-2.4-1-.6-.7-.9-1.6-.9-2.7s.3-2,.9-2.7c.6-.7,1.4-1.1,2.3-1.1s1.1.1,1.5.4.8.6,1,1.1v-1.3h1v6.9h-1ZM118.5,102.7c0,.9.2,1.6.6,2.1.4.5,1,.7,1.7.7s1.3-.3,1.7-.8c.4-.5.6-1.3.6-2.2s-.2-1.5-.6-2c-.4-.5-1-.7-1.7-.7s-1.3.3-1.7.8-.6,1.2-.6,2.1Z"></path>
      <path class="st0" d="M126.5,109.5v-10.4h.9v1.3c.3-.5.6-.9,1-1.2.4-.3.9-.4,1.4-.4,1,0,1.8.3,2.4,1,.6.7.9,1.6.9,2.7s-.3,2-.9,2.7c-.6.7-1.4,1-2.3,1s-1-.1-1.5-.4c-.4-.3-.8-.7-1-1.2v4.8h-.9ZM132.1,102.6c0-.9-.2-1.6-.6-2.1-.4-.5-1-.8-1.7-.8s-1.3.2-1.7.7c-.4.5-.6,1.2-.6,2.1s.2,1.6.7,2.1c.5.5,1,.8,1.8.8s1.2-.2,1.6-.7c.4-.5.6-1.2.6-2.1Z"></path>
      <path class="st0" d="M135,109.5v-10.4h.9v1.3c.3-.5.6-.9,1-1.2s.9-.4,1.4-.4c1,0,1.8.3,2.4,1s.9,1.6.9,2.7-.3,2-.9,2.7-1.4,1-2.3,1-1-.1-1.5-.4-.8-.7-1-1.2v4.8h-.9ZM140.6,102.6c0-.9-.2-1.6-.6-2.1s-1-.8-1.7-.8-1.3.2-1.7.7-.6,1.2-.6,2.1.2,1.6.7,2.1,1,.8,1.8.8,1.2-.2,1.6-.7.6-1.2.6-2.1Z"></path>
      <path class="st0" d="M143.2,96.4c0-.2,0-.4.2-.5s.3-.2.5-.2.4,0,.5.2.2.3.2.5,0,.4-.2.5-.3.2-.5.2-.4,0-.5-.2-.2-.3-.2-.5ZM143.5,106v-6.9h1v6.9h-1Z"></path>
      <path class="st0" d="M146.9,106v-6.9h.9v1.1c.3-.4.6-.8,1-1s.9-.3,1.4-.3c.8,0,1.4.2,1.8.7s.7,1,.7,1.8v4.7h-1v-4.3c0-.7-.1-1.2-.4-1.5s-.7-.5-1.3-.5-1.3.2-1.6.7-.5,1.1-.5,2.1v3.6h-1Z"></path>
      <path class="st0" d="M161,102.6h-5.5c0,.9.2,1.6.7,2.1s1,.8,1.7.8,1-.1,1.3-.4.7-.7,1-1.2l.9.5c-.4.7-.8,1.2-1.3,1.6s-1.1.5-1.9.5-1.8-.3-2.5-1-.9-1.6-.9-2.7.3-2.1.9-2.8,1.4-1,2.4-1,1.7.3,2.3,1,.9,1.5.9,2.6v.2ZM159.8,101.8c0-.6-.3-1.1-.6-1.5s-.9-.5-1.5-.5-1.1.2-1.5.5-.6.8-.7,1.5h4.3Z"></path>
      <path class="st0" d="M162,104.8l.9-.5c.2.4.4.7.7.9s.6.3,1.1.3.7-.1,1-.3.4-.5.4-.8c0-.5-.5-1-1.4-1.4,0,0-.2,0-.2,0-.7-.3-1.2-.6-1.5-.9s-.4-.7-.4-1.1.2-1.1.6-1.4,1-.6,1.6-.6,1,.1,1.4.4.7.6.9,1l-.9.5c-.1-.3-.3-.6-.5-.8s-.6-.3-.9-.3-.6,0-.8.3-.3.4-.3.7.1.5.3.7.7.4,1.3.6c.8.3,1.3.6,1.5.9s.4.7.4,1.3-.2,1.1-.7,1.5-1.1.6-1.8.6-1.1-.1-1.5-.4-.7-.6-.9-1.1Z"></path>
      <path class="st0" d="M167.9,104.8l.9-.5c.2.4.4.7.7.9s.6.3,1.1.3.7-.1,1-.3.4-.5.4-.8c0-.5-.5-1-1.4-1.4,0,0-.2,0-.2,0-.7-.3-1.2-.6-1.5-.9s-.4-.7-.4-1.1.2-1.1.6-1.4,1-.6,1.6-.6,1,.1,1.4.4.7.6.9,1l-.9.5c-.1-.3-.3-.6-.5-.8s-.6-.3-.9-.3-.6,0-.8.3-.3.4-.3.7.1.5.3.7.7.4,1.3.6c.8.3,1.3.6,1.5.9s.4.7.4,1.3-.2,1.1-.7,1.5-1.1.6-1.8.6-1.1-.1-1.5-.4-.7-.6-.9-1.1Z"></path>
      <path class="st0" d="M184.9,102.6h-5.5c0,.9.2,1.6.7,2.1s1,.8,1.7.8,1-.1,1.3-.4.7-.7,1-1.2l.9.5c-.4.7-.8,1.2-1.3,1.6s-1.1.5-1.9.5-1.8-.3-2.5-1-.9-1.6-.9-2.7.3-2.1.9-2.8,1.4-1,2.4-1,1.7.3,2.3,1,.9,1.5.9,2.6v.2ZM183.8,101.8c0-.6-.3-1.1-.6-1.5s-.9-.5-1.5-.5-1.1.2-1.5.5c-.4.4-.6.8-.7,1.5h4.3Z"></path>
      <path class="st0" d="M192.1,100.4c-.3-.2-.7-.4-1-.5s-.7-.2-1.1-.2c-.9,0-1.5.3-2.1.8s-.8,1.3-.8,2.2.3,1.5.8,2,1.2.8,2,.8.8,0,1.1-.2.8-.3,1.1-.6v1.1c-.3.2-.7.3-1.1.4s-.9.1-1.3.1c-1.1,0-1.9-.3-2.6-1s-1-1.6-1-2.7.4-2,1.1-2.8,1.6-1.1,2.8-1.1.8,0,1.2.1.7.2,1,.3v1.1Z"></path>
      <path class="st0" d="M196.9,106.3c-.5,0-1,0-1.4-.3s-.9-.5-1.2-.8c-.3-.3-.6-.7-.8-1.2s-.3-.9-.3-1.4,0-1,.3-1.4.5-.9.8-1.2.8-.6,1.2-.8.9-.3,1.4-.3,1,0,1.5.3.9.5,1.2.8.6.8.8,1.2.3.9.3,1.4,0,1-.3,1.4-.5.9-.8,1.2c-.4.4-.8.6-1.2.8s-1,.3-1.5.3ZM197,105.4c.8,0,1.4-.3,1.9-.8s.8-1.2.8-2-.3-1.5-.8-2-1.2-.8-1.9-.8-1.4.3-1.9.8-.8,1.2-.8,2,.3,1.5.8,2,1.2.8,1.9.8Z"></path>
      <path class="st0" d="M201.7,104.8l.9-.5c.2.4.4.7.7.9.3.2.6.3,1.1.3s.7-.1,1-.3c.2-.2.4-.5.4-.8,0-.5-.5-1-1.4-1.4,0,0-.2,0-.2,0-.7-.3-1.2-.6-1.5-.9-.3-.3-.4-.7-.4-1.1s.2-1.1.6-1.4c.4-.4,1-.6,1.6-.6s1,.1,1.4.4c.4.2.7.6.9,1l-.9.5c-.1-.3-.3-.6-.5-.8-.3-.2-.6-.3-.9-.3s-.6,0-.8.3c-.2.2-.3.4-.3.7s.1.5.3.7c.2.2.7.4,1.3.6.8.3,1.3.6,1.5.9.3.3.4.7.4,1.3s-.2,1.1-.7,1.5-1.1.6-1.8.6-1.1-.1-1.5-.4c-.4-.3-.7-.6-.9-1.1Z"></path>
      <path class="st0" d="M207.5,99.1h1l2,5.4,1.8-5.4h1l-3.6,10.4h-1l1.2-3.5-2.5-6.9Z"></path>
      <path class="st0" d="M213.9,104.8l.9-.5c.2.4.4.7.7.9s.6.3,1.1.3.7-.1,1-.3.4-.5.4-.8c0-.5-.5-1-1.4-1.4,0,0-.2,0-.2,0-.7-.3-1.2-.6-1.5-.9s-.4-.7-.4-1.1.2-1.1.6-1.4,1-.6,1.6-.6,1,.1,1.4.4.7.6.9,1l-.9.5c-.1-.3-.3-.6-.5-.8s-.6-.3-.9-.3-.6,0-.8.3-.3.4-.3.7.1.5.3.7.7.4,1.3.6c.8.3,1.3.6,1.5.9s.4.7.4,1.3-.2,1.1-.7,1.5-1.1.6-1.8.6-1.1-.1-1.5-.4-.7-.6-.9-1.1Z"></path>
      <path class="st0" d="M220.8,99.9h-1.3v-.8h1.3v-2.8h.9v2.8h1.4v.8h-1.4v6.1h-.9v-6.1Z"></path>
      <path class="st0" d="M230.3,102.6h-5.5c0,.9.2,1.6.7,2.1s1,.8,1.7.8,1-.1,1.3-.4.7-.7,1-1.2l.9.5c-.4.7-.8,1.2-1.3,1.6s-1.1.5-1.9.5-1.8-.3-2.5-1-.9-1.6-.9-2.7.3-2.1.9-2.8,1.4-1,2.4-1,1.7.3,2.3,1,.9,1.5.9,2.6v.2ZM229.1,101.8c0-.6-.3-1.1-.6-1.5s-.9-.5-1.5-.5-1.1.2-1.5.5-.6.8-.7,1.5h4.3Z"></path>
      <path class="st0" d="M233,106h-1v-6.9h1v1.1c.2-.4.5-.8.9-1s.8-.3,1.3-.3.9.1,1.3.3.6.6.8,1c.3-.5.6-.8,1-1s.9-.3,1.4-.3,1.3.2,1.7.7.6,1.1.6,1.8v4.7h-1v-4.3c0-.7-.1-1.2-.4-1.5s-.7-.5-1.2-.5-1.1.2-1.5.6-.5,1.1-.5,2.1v3.6h-1v-4.3c0-.7-.1-1.2-.4-1.6s-.7-.5-1.2-.5-1.2.2-1.5.7-.5,1.1-.5,2v3.6Z"></path>
    </g>
  </g>
</svg>
