<svg xmlns="http://www.w3.org/2000/svg" id="Layer_3" data-name="Layer 3" viewBox="0 0 791.9999389648438 253.16000366210938" >
<title>MolMeh Technolabs</title><ellipse cx="125.62" cy="126.58" rx="125.62" ry="126.58" fill="#3383ff"></ellipse><path d="M83.74,120q-4.72,16-13.21,48.28-2,11.16-3.89,22.21-4.29,14-15.83,14-7.25,0-11.43-4.64a13.51,13.51,0,0,1-3.57-9.38q0-16,7.24-39,10.8-34.45,11.64-38.2,3-15.21,6.19-30.41Q65.59,61.9,71.1,54.94A17,17,0,0,1,85,48q9.54,0,14,9.08,4.2,8.59,9,35.15a477.2,477.2,0,0,0,13.74,55.48,672.75,672.75,0,0,0,22.24-64.37l5.87-22.71q5.66-14.11,17.51-14.11,11.43,0,17,16.39,2.31,6.61,4.93,24.68,6.09,42.06,15.32,72.07Q214,190.15,214,192.81a12.07,12.07,0,0,1-4.93,9.78,16.65,16.65,0,0,1-10.38,3.55q-11.43,0-17-15.4l-5.88-23.89q-5-17.78-10.9-51Q160.2,129,149.29,157.37L143,175.53a99.51,99.51,0,0,1-8.08,17.68q-5.56,9.18-15.52,9.18t-15.1-11l-5.88-18.36Q90.25,147.8,83.74,120Z" fill="#fff"></path><path d="M307.93,121.55l10.75-1.43h2.65l9.11,1.38v5l-22.51.06Zm.8-56.41,13.18,0,.13,6.42h-1.5l-11.81-1.37Zm8.1,0h5.28l.7,32.38v29l-6,0Zm.56,0,15.68,0,16.62,45.46h-3.07L362.31,65l6.09,0-21.3,61.48-7.12,0Zm39.1,56.3L368.3,120h4.25l13.4,1.37v5l-29.46.08Zm6.9-22,.33-34.4,15.4,0c-.28,9.58-.28,19.31-.28,29v3.46c0,9.76,0,19.48.28,29l-16,0C363.39,116.85,363.32,107.13,363.39,99.4ZM371.09,65l14.52,0v5L372.55,71.4h-1.46Z" fill="#3383ff"></path><path d="M465.51,95.45c0,21.56-14,32.49-29.28,32.53s-29.32-10.59-29.32-32.37c0-21.56,14.17-32.49,29.32-32.53S465.51,73.67,465.51,95.45Zm-29.28,27.12c9.28,0,12.93-11.57,12.93-27.07s-3.65-27.1-12.93-27.07-13,11.69-13,27.13S426.94,122.59,436.23,122.57Z" fill="#3383ff"></path><path d="M486.51,69.71v-5L517,64.61v5l-13.67,1.44h-3.37Zm14.85,49.94v6.43l-14.85,0v-5l13.4-1.43Zm-8-55,16.06,0c-.28,9.5-.28,19.22-.28,29v4.93c0,8.22,0,17.94.28,27.51l-16.06,0c.28-9.5.28-19.22.28-27V93.65C493.61,84,493.61,74.25,493.33,64.67Zm41.91,43L534.32,126l-33,.09v-5.35l29.86-.08-7,5.37,3.63-18.33Z" fill="#3383ff"></path><path d="M554.6,120.92l10.76-1.43H568l9.11,1.38v5l-22.52.06Zm.8-56.41,13.19,0,.13,6.42h-1.51L555.4,69.53Zm8.11,0h5.28l.69,32.38v29l-6,0Zm.56,0,15.68,0,16.62,45.46H593.3L609,64.38l6.1,0-21.3,61.48-7.12,0Zm39.1,56.3L615,119.36h4.24l13.4,1.37v5l-29.45.08Zm6.9-22,.33-34.4,15.39,0c-.27,9.58-.27,19.3-.27,29v3.46c0,9.76,0,19.48.27,29l-16,0C610.07,116.22,610,106.5,610.07,98.77Zm7.7-34.42,14.52,0v5l-13.07,1.43h-1.45Z" fill="#3383ff"></path><path d="M654.8,69.28v-5l14.86,0v6.42H668.2Zm14.86,49.94v6.42l-14.86,0v-5l13.4-1.44Zm-7.75-26c0-9.63,0-19.35-.28-29l16.06,0c-.28,9.44-.28,19.17-.28,29v3.08c0,10,0,19.74.28,29.36l-16.06,0c.28-9.45.28-19.17.28-29Zm30.26-29.06,6.68,5.27-29.19.07V64.22L702,64.14l.65,16.1-7.7,0ZM690,96.65l-20.33,0V91.18L690,91.13Zm14.45,12.8-.64,16.11-34.14.08v-5.21l31-.08L694,125.58l2.73-16.11Zm-17.27-16.7,1.38-9h5.36V103.9h-5.36l-1.38-9.43Z" fill="#3383ff"></path><path d="M725.89,69.1v-5L755,64v5l-13.47,1.44h-2.71ZM741.53,119,755,120.4v5l-29.11.07v-5L738.82,119Zm-8.67-26c0-9.63,0-19.35-.28-29l16.06,0c-.28,9.44-.28,19.16-.28,29v2.87c0,10.22,0,19.94.28,29.57l-16.06,0c.28-9.44.28-19.16.28-29Zm7.75,3.59V91.18l35.18-.09v5.45ZM761.4,69V64l29.11-.08v5l-13.27,1.44h-2.58ZM777.24,119l13.27,1.36v5l-29.11.07v-5L774.66,119ZM768,93c0-9.63,0-19.35-.27-29l16,0c-.27,9.44-.27,19.16-.27,29v3.46c0,9.63,0,19.35.27,29l-16,0c.27-9.44.27-19.16.27-29.57Z" fill="#3383ff"></path><path d="M339.69,165.31a14.12,14.12,0,0,0-2.45-4.8c-1-1-1.48-1.43-4.83-1.43h-3.65v23c0,4.12.57,4.41,5.64,4.76v1.81H315.51v-1.81c4.83-.35,5.34-.64,5.34-4.76v-23h-3.47c-3.18,0-4.09.45-5.17,1.62a17.38,17.38,0,0,0-2.34,4.66h-2.16c.4-3.58.8-7.4.91-9.75h1.71c.85,1.12,1.53,1.22,3.24,1.22h22.76a4,4,0,0,0,3.3-1.22h1.65c.06,2,.29,6.37.57,9.55Z" fill="#323335"></path><path d="M388.45,180.35c-.28,1.32-1.88,7-2.39,8.33H356.53v-1.77c5.18-.44,5.52-.68,5.52-4.8V163.4c0-4.17-.68-4.46-4.55-4.76v-1.81H376c6,0,8-.05,8.76-.1.06.88.34,4.9.57,7.94l-2.22.25a11.68,11.68,0,0,0-2.44-4.56c-1-1-1.77-1.28-4.67-1.28h-3.7c-2.16,0-2.39.1-2.39,1.77v10.24h5.58c3.19,0,3.75-.74,4.61-4.21h2.22V177.8h-2.22c-.91-3.62-1.37-4.21-4.67-4.21H369.9V182c0,3.39.12,4.41,3.64,4.46h4c3.19,0,4-.34,5.3-1.66a21.76,21.76,0,0,0,3.47-4.9Z" fill="#323335"></path><path d="M439.15,180.25a64.15,64.15,0,0,1-3.19,7.89,56.56,56.56,0,0,1-10.47,1.27c-15.3,0-21.62-8.47-21.62-16.26,0-10.15,9-17,22.65-17a69.2,69.2,0,0,1,10.75,1.17c.29,2.3.69,5.93,1.08,8.09l-2.27.34c-1.2-3.82-2.9-5.64-5.92-6.67a16.45,16.45,0,0,0-5-.68c-8.25,0-12.4,5.93-12.4,13.62,0,9,5.34,15,13.14,15,4.78,0,8-2.15,11-7.54Z" fill="#323335"></path><path d="M496.22,158.64c-4.44.4-4.83.69-4.83,4.76v18.76c0,4.07.45,4.36,4.83,4.71v1.81H478.64v-1.81c4.49-.49,4.84-.64,4.84-4.71V173H468.11v9.21c0,4.07.52,4.31,4.78,4.71v1.81H455.37v-1.81c4.21-.4,4.83-.64,4.83-4.71V163.4c0-4.07-.51-4.46-4.83-4.76v-1.81h17.52v1.81c-4.32.35-4.78.69-4.78,4.76v7h15.37v-7c0-4.07-.57-4.36-4.84-4.76v-1.81h17.58Z" fill="#323335"></path><path d="M552.1,158.64c-3.47.4-4.55,1-4.72,3.24a70.92,70.92,0,0,0-.35,7.84v19.5h-3.18l-23.73-24.5v11.07a61.76,61.76,0,0,0,.29,7.6c.22,2.15,1.42,3.28,5.63,3.48v1.81H511.93v-1.81c3.24-.25,4.66-1,5-3.29a56,56,0,0,0,.35-7.79V164.18a5.28,5.28,0,0,0-1.2-4c-1-1.22-2.39-1.37-4.78-1.57v-1.81h11.1l21.68,21.71v-8.82a76.82,76.82,0,0,0-.23-7.7c-.17-2.1-1.08-3.13-5.81-3.38v-1.81H552.1Z" fill="#323335"></path><path d="M587.21,156.15c10.52,0,19.11,6.61,19.11,16.26,0,10.44-8.64,17-19.4,17-11.38,0-19.63-7.15-19.63-16.61C567.29,164.43,574.23,156.15,587.21,156.15Zm-.86,2.15c-5.8,0-10.07,4.9-10.07,13.57,0,8.28,3.81,15.39,11.5,15.39,5.4,0,9.61-4.51,9.61-13.48C597.39,164.08,593,158.3,586.35,158.3Z" fill="#323335"></path><path d="M652.81,180.05c-.45,2.11-2,7.31-2.56,8.63H622v-1.81c5-.3,5.46-.64,5.46-4.76V163.45c0-4.12-.57-4.51-4.83-4.81v-1.81h17.75v1.81c-4.44.35-5,.69-5,4.81v19c0,2.69.12,3.92,3.24,4,.12.05,2.74.05,3,.05,3.25,0,4.1-.58,5.47-1.91a20,20,0,0,0,3.58-5.09Z" fill="#323335"></path><path d="M688.38,188.68v-1.81c3.58-.45,3.58-1,2.78-3.09-.57-1.47-1.48-3.68-2.33-5.64H677.74c-.63,1.52-1.43,3.39-2,4.9-1.19,3.09.18,3.48,4.67,3.83v1.81h-14v-1.81c3.58-.4,4.49-.84,6.43-5l11.83-25.33,2.73-.44c3.64,8.52,7.51,17.24,11.21,25.42,2.11,4.56,2.62,4.9,6.32,5.3v1.81Zm-5-23.42c-1.65,3.53-3.24,6.81-4.67,10.39h9Z" fill="#323335"></path><path d="M740.33,171.14c6,.93,10.18,3.38,10.18,8,0,3-2.22,5.88-5.46,7.45a25.55,25.55,0,0,1-10.81,2.06H718.31v-1.81c4.38-.4,4.83-.64,4.83-4.76V163.45c0-4.12-.74-4.56-4.78-4.81v-1.81h17.3c4.33,0,7.06.49,9.33,1.72a6.13,6.13,0,0,1,3.47,5.43C748.46,168.05,744,170.5,740.33,171.14Zm-7.23-.64c5.41,0,7.4-2,7.4-5.63,0-4.27-3.25-5.88-6.38-5.88a6.15,6.15,0,0,0-2.67.39c-.63.34-.57.78-.57,1.81v9.31ZM730.88,182c0,3.53,1.88,4.61,5,4.56s6.2-2.4,6.2-7c0-4.75-2.78-7-9.16-7h-2Z" fill="#323335"></path><path d="M788.35,164.92c-1.14-3.14-2.73-6.72-8-6.72-3.3,0-5.46,2-5.46,4.76s2.11,4.31,7.11,6.46c6.09,2.6,10,5.15,10,10,0,5.78-5.57,10-13.71,10a37.46,37.46,0,0,1-9.56-1.52c-.34-1.12-1.31-6.22-1.71-8.52l2.22-.44c1.14,3.08,4.33,8.43,9.9,8.43,3.47,0,5.58-1.87,5.58-5,0-2.84-2.05-4.51-6.83-6.71-5.92-2.75-9.79-5.2-9.79-10.29s4.67-9.21,13.21-9.21a48.17,48.17,0,0,1,8.13.88c.23,1.81.63,4.36,1.08,7.44Z" fill="#323335"></path></svg>
